<mxfile host="app.diagrams.net" agent="Mozilla/5.0 (Windows NT 10.0; Win64; x64) AppleWebKit/537.36 (KHTML, like Gecko) Chrome/136.0.0.0 Safari/537.36" version="26.3.0">
  <diagram name="Страница — 1" id="zbMt8ld53hos1hts9wzq">
    <mxGraphModel dx="639" dy="1243" grid="0" gridSize="10" guides="1" tooltips="1" connect="1" arrows="1" fold="1" page="0" pageScale="1" pageWidth="827" pageHeight="1169" math="0" shadow="0">
      <root>
        <mxCell id="0" />
        <mxCell id="1" parent="0" />
        <mxCell id="MN3PHeWG23Chj6dq9QR9-1" value="" style="rounded=0;whiteSpace=wrap;html=1;" vertex="1" parent="1">
          <mxGeometry x="27" y="-82" width="530" height="247" as="geometry" />
        </mxCell>
        <mxCell id="MN3PHeWG23Chj6dq9QR9-2" value="Database&lt;br&gt;PostgreSQL" style="rounded=0;whiteSpace=wrap;html=1;" vertex="1" parent="1">
          <mxGeometry x="59" y="-28" width="120" height="60" as="geometry" />
        </mxCell>
        <mxCell id="MN3PHeWG23Chj6dq9QR9-4" value="Backend Go (Gin)" style="rounded=0;whiteSpace=wrap;html=1;" vertex="1" parent="1">
          <mxGeometry x="221" y="-28" width="120" height="60" as="geometry" />
        </mxCell>
        <mxCell id="MN3PHeWG23Chj6dq9QR9-5" value="Backend Python (Flask)" style="rounded=0;whiteSpace=wrap;html=1;" vertex="1" parent="1">
          <mxGeometry x="221" y="74" width="120" height="60" as="geometry" />
        </mxCell>
        <mxCell id="MN3PHeWG23Chj6dq9QR9-7" value="" style="endArrow=classic;startArrow=classic;html=1;rounded=0;fontSize=12;startSize=8;endSize=8;curved=1;exitX=1;exitY=0.5;exitDx=0;exitDy=0;entryX=0;entryY=0.5;entryDx=0;entryDy=0;" edge="1" parent="1" source="MN3PHeWG23Chj6dq9QR9-2" target="MN3PHeWG23Chj6dq9QR9-4">
          <mxGeometry width="50" height="50" relative="1" as="geometry">
            <mxPoint x="201" y="73" as="sourcePoint" />
            <mxPoint x="251" y="23" as="targetPoint" />
          </mxGeometry>
        </mxCell>
        <mxCell id="MN3PHeWG23Chj6dq9QR9-8" value="" style="endArrow=classic;startArrow=classic;html=1;rounded=0;fontSize=12;startSize=8;endSize=8;curved=1;exitX=0.5;exitY=1;exitDx=0;exitDy=0;entryX=0.5;entryY=0;entryDx=0;entryDy=0;" edge="1" parent="1" source="MN3PHeWG23Chj6dq9QR9-4" target="MN3PHeWG23Chj6dq9QR9-5">
          <mxGeometry width="50" height="50" relative="1" as="geometry">
            <mxPoint x="315" y="136" as="sourcePoint" />
            <mxPoint x="365" y="86" as="targetPoint" />
          </mxGeometry>
        </mxCell>
        <mxCell id="MN3PHeWG23Chj6dq9QR9-9" value="Nginx" style="rounded=0;whiteSpace=wrap;html=1;" vertex="1" parent="1">
          <mxGeometry x="383" y="-28" width="120" height="60" as="geometry" />
        </mxCell>
        <mxCell id="MN3PHeWG23Chj6dq9QR9-10" value="" style="endArrow=classic;startArrow=classic;html=1;rounded=0;fontSize=12;startSize=8;endSize=8;curved=1;exitX=1;exitY=0.5;exitDx=0;exitDy=0;entryX=0;entryY=0.5;entryDx=0;entryDy=0;" edge="1" parent="1" source="MN3PHeWG23Chj6dq9QR9-4" target="MN3PHeWG23Chj6dq9QR9-9">
          <mxGeometry width="50" height="50" relative="1" as="geometry">
            <mxPoint x="423" y="78" as="sourcePoint" />
            <mxPoint x="473" y="28" as="targetPoint" />
          </mxGeometry>
        </mxCell>
        <mxCell id="MN3PHeWG23Chj6dq9QR9-11" value="" style="endArrow=classic;startArrow=classic;html=1;rounded=0;fontSize=12;startSize=8;endSize=8;curved=1;exitX=1;exitY=0;exitDx=0;exitDy=0;entryX=0;entryY=1;entryDx=0;entryDy=0;" edge="1" parent="1" source="MN3PHeWG23Chj6dq9QR9-5" target="MN3PHeWG23Chj6dq9QR9-9">
          <mxGeometry width="50" height="50" relative="1" as="geometry">
            <mxPoint x="403" y="134" as="sourcePoint" />
            <mxPoint x="453" y="84" as="targetPoint" />
          </mxGeometry>
        </mxCell>
        <mxCell id="MN3PHeWG23Chj6dq9QR9-14" value="Docker" style="text;html=1;align=center;verticalAlign=middle;whiteSpace=wrap;rounded=0;" vertex="1" parent="1">
          <mxGeometry x="262" y="-74" width="60" height="30" as="geometry" />
        </mxCell>
        <mxCell id="MN3PHeWG23Chj6dq9QR9-16" value="" style="endArrow=classic;startArrow=classic;html=1;rounded=0;fontSize=12;startSize=8;endSize=8;curved=1;exitX=1;exitY=0.5;exitDx=0;exitDy=0;entryX=1;entryY=0.5;entryDx=0;entryDy=0;" edge="1" parent="1" source="MN3PHeWG23Chj6dq9QR9-9" target="MN3PHeWG23Chj6dq9QR9-1">
          <mxGeometry width="50" height="50" relative="1" as="geometry">
            <mxPoint x="503" y="154" as="sourcePoint" />
            <mxPoint x="573.7106781186548" y="104" as="targetPoint" />
          </mxGeometry>
        </mxCell>
        <mxCell id="MN3PHeWG23Chj6dq9QR9-17" value="Client&lt;br&gt;Frontend&lt;div&gt;Vue (Vite + TS)&lt;/div&gt;" style="rounded=0;whiteSpace=wrap;html=1;" vertex="1" parent="1">
          <mxGeometry x="640" y="11.5" width="120" height="60" as="geometry" />
        </mxCell>
        <mxCell id="MN3PHeWG23Chj6dq9QR9-19" value="" style="endArrow=classic;startArrow=classic;html=1;rounded=0;fontSize=12;startSize=8;endSize=8;curved=1;exitX=1;exitY=0.5;exitDx=0;exitDy=0;entryX=0;entryY=0.5;entryDx=0;entryDy=0;" edge="1" parent="1" source="MN3PHeWG23Chj6dq9QR9-1" target="MN3PHeWG23Chj6dq9QR9-17">
          <mxGeometry width="50" height="50" relative="1" as="geometry">
            <mxPoint x="717" y="177" as="sourcePoint" />
            <mxPoint x="767" y="127" as="targetPoint" />
          </mxGeometry>
        </mxCell>
      </root>
    </mxGraphModel>
  </diagram>
</mxfile>
